<mxfile host="app.diagrams.net" modified="2024-05-16T12:35:45.324Z" agent="Mozilla/5.0 (Macintosh; Intel Mac OS X 10_15_7) AppleWebKit/537.36 (KHTML, like Gecko) Chrome/124.0.0.0 Safari/537.36" etag="GKn9Qm8zaFlZHFRpTAmI" version="24.4.2" type="github">
  <diagram name="페이지-1" id="knKleyFAA_ra9yRf8Yms">
    <mxGraphModel dx="1434" dy="795" grid="1" gridSize="10" guides="1" tooltips="1" connect="1" arrows="1" fold="1" page="1" pageScale="1" pageWidth="827" pageHeight="1169" math="0" shadow="0">
      <root>
        <mxCell id="0" />
        <mxCell id="1" parent="0" />
        <mxCell id="3UmKbR2uWDy8kfdV2p3z-1" value="User&lt;div&gt;&lt;br&gt;&lt;/div&gt;" style="shape=umlActor;verticalLabelPosition=bottom;verticalAlign=top;html=1;outlineConnect=0;" vertex="1" parent="1">
          <mxGeometry x="70" y="240" width="30" height="60" as="geometry" />
        </mxCell>
        <mxCell id="3UmKbR2uWDy8kfdV2p3z-2" value="TODO 서비스&lt;div style=&quot;forced-color-adjust: none;&quot;&gt;&lt;br style=&quot;forced-color-adjust: none; color: rgb(0, 0, 0); font-family: Helvetica; font-size: 12px; font-style: normal; font-variant-ligatures: normal; font-variant-caps: normal; font-weight: 400; letter-spacing: normal; orphans: 2; text-align: center; text-indent: 0px; text-transform: none; widows: 2; word-spacing: 0px; -webkit-text-stroke-width: 0px; white-space: normal; background-color: rgb(251, 251, 251); text-decoration-thickness: initial; text-decoration-style: initial; text-decoration-color: initial;&quot;&gt;&lt;/div&gt;" style="text;whiteSpace=wrap;html=1;" vertex="1" parent="1">
          <mxGeometry x="455" y="110" width="80" height="50" as="geometry" />
        </mxCell>
        <mxCell id="3UmKbR2uWDy8kfdV2p3z-3" value="일정 등록" style="ellipse;whiteSpace=wrap;html=1;" vertex="1" parent="1">
          <mxGeometry x="270" y="180" width="140" height="60" as="geometry" />
        </mxCell>
        <mxCell id="3UmKbR2uWDy8kfdV2p3z-4" value="일정 수정" style="ellipse;whiteSpace=wrap;html=1;" vertex="1" parent="1">
          <mxGeometry x="270" y="345" width="140" height="60" as="geometry" />
        </mxCell>
        <mxCell id="3UmKbR2uWDy8kfdV2p3z-5" value="일정 조회" style="ellipse;whiteSpace=wrap;html=1;" vertex="1" parent="1">
          <mxGeometry x="270" y="260" width="140" height="60" as="geometry" />
        </mxCell>
        <mxCell id="3UmKbR2uWDy8kfdV2p3z-6" value="일정 삭제" style="ellipse;whiteSpace=wrap;html=1;" vertex="1" parent="1">
          <mxGeometry x="270" y="420" width="140" height="60" as="geometry" />
        </mxCell>
        <mxCell id="3UmKbR2uWDy8kfdV2p3z-7" value="선택한 일정 조회" style="ellipse;whiteSpace=wrap;html=1;" vertex="1" parent="1">
          <mxGeometry x="480" y="310" width="140" height="60" as="geometry" />
        </mxCell>
        <mxCell id="3UmKbR2uWDy8kfdV2p3z-8" value="" style="endArrow=none;dashed=1;html=1;dashPattern=1 3;strokeWidth=2;rounded=0;" edge="1" parent="1" target="3UmKbR2uWDy8kfdV2p3z-7">
          <mxGeometry width="50" height="50" relative="1" as="geometry">
            <mxPoint x="405" y="300" as="sourcePoint" />
            <mxPoint x="455" y="250" as="targetPoint" />
          </mxGeometry>
        </mxCell>
        <mxCell id="3UmKbR2uWDy8kfdV2p3z-9" value="&amp;lt;Extend&amp;gt;" style="edgeLabel;html=1;align=center;verticalAlign=middle;resizable=0;points=[];" connectable="0" vertex="1" parent="3UmKbR2uWDy8kfdV2p3z-8">
          <mxGeometry x="0.1941" y="1" relative="1" as="geometry">
            <mxPoint as="offset" />
          </mxGeometry>
        </mxCell>
        <mxCell id="3UmKbR2uWDy8kfdV2p3z-10" value="파일 업로드" style="ellipse;whiteSpace=wrap;html=1;" vertex="1" parent="1">
          <mxGeometry x="270" y="500" width="140" height="60" as="geometry" />
        </mxCell>
        <mxCell id="3UmKbR2uWDy8kfdV2p3z-11" value="&lt;span style=&quot;text-align: start; font-family: SFMono-Regular, Menlo, Consolas, &amp;quot;PT Mono&amp;quot;, &amp;quot;Liberation Mono&amp;quot;, Courier, monospace; line-height: normal; background: rgba(135, 131, 120, 0.15); color: rgb(235, 87, 87); border-radius: 4px; font-size: 13.6px; padding: 0.2em 0.4em;&quot; class=&quot;notion-enable-hover&quot; spellcheck=&quot;false&quot; data-token-index=&quot;0&quot;&gt;할일 제목&lt;/span&gt;" style="ellipse;whiteSpace=wrap;html=1;" vertex="1" parent="1">
          <mxGeometry x="455" y="150" width="85" height="30" as="geometry" />
        </mxCell>
        <mxCell id="3UmKbR2uWDy8kfdV2p3z-12" value="&lt;span style=&quot;text-align: start; font-family: SFMono-Regular, Menlo, Consolas, &amp;quot;PT Mono&amp;quot;, &amp;quot;Liberation Mono&amp;quot;, Courier, monospace; line-height: normal; background: rgba(135, 131, 120, 0.15); color: rgb(235, 87, 87); border-radius: 4px; font-size: 13.6px; padding: 0.2em 0.4em;&quot; class=&quot;notion-enable-hover&quot; spellcheck=&quot;false&quot; data-token-index=&quot;0&quot;&gt;담당자&lt;/span&gt;" style="ellipse;whiteSpace=wrap;html=1;" vertex="1" parent="1">
          <mxGeometry x="460" y="190" width="80" height="30" as="geometry" />
        </mxCell>
        <mxCell id="3UmKbR2uWDy8kfdV2p3z-13" value="&lt;div style=&quot;text-align: start;&quot;&gt;&lt;font face=&quot;SFMono-Regular, Menlo, Consolas, PT Mono, Liberation Mono, Courier, monospace&quot; color=&quot;#eb5757&quot;&gt;&lt;span style=&quot;font-size: 13.6px; background-color: rgba(135, 131, 120, 0.15);&quot;&gt;할일 내용&lt;/span&gt;&lt;/font&gt;&lt;/div&gt;" style="ellipse;whiteSpace=wrap;html=1;" vertex="1" parent="1">
          <mxGeometry x="540" y="170" width="80" height="30" as="geometry" />
        </mxCell>
        <mxCell id="3UmKbR2uWDy8kfdV2p3z-14" value="&lt;span style=&quot;text-align: start; font-family: SFMono-Regular, Menlo, Consolas, &amp;quot;PT Mono&amp;quot;, &amp;quot;Liberation Mono&amp;quot;, Courier, monospace; line-height: normal; background: rgba(135, 131, 120, 0.15); color: rgb(235, 87, 87); border-radius: 4px; font-size: 13.6px; padding: 0.2em 0.4em;&quot; class=&quot;notion-enable-hover&quot; spellcheck=&quot;false&quot; data-token-index=&quot;0&quot;&gt;비밀번호&lt;/span&gt;" style="ellipse;whiteSpace=wrap;html=1;" vertex="1" parent="1">
          <mxGeometry x="480" y="230" width="80" height="30" as="geometry" />
        </mxCell>
        <mxCell id="3UmKbR2uWDy8kfdV2p3z-15" value="&lt;span style=&quot;text-align: start; font-family: SFMono-Regular, Menlo, Consolas, &amp;quot;PT Mono&amp;quot;, &amp;quot;Liberation Mono&amp;quot;, Courier, monospace; line-height: normal; background: rgba(135, 131, 120, 0.15); color: rgb(235, 87, 87); border-radius: 4px; font-size: 13.6px; padding: 0.2em 0.4em;&quot; class=&quot;notion-enable-hover&quot; spellcheck=&quot;false&quot; data-token-index=&quot;0&quot;&gt;작성일&lt;/span&gt;" style="ellipse;whiteSpace=wrap;html=1;" vertex="1" parent="1">
          <mxGeometry x="550" y="210" width="80" height="30" as="geometry" />
        </mxCell>
        <mxCell id="3UmKbR2uWDy8kfdV2p3z-16" value="" style="endArrow=none;dashed=1;html=1;dashPattern=1 3;strokeWidth=2;rounded=0;entryX=0.01;entryY=0.629;entryDx=0;entryDy=0;entryPerimeter=0;" edge="1" parent="1" source="3UmKbR2uWDy8kfdV2p3z-3" target="3UmKbR2uWDy8kfdV2p3z-11">
          <mxGeometry width="50" height="50" relative="1" as="geometry">
            <mxPoint x="410" y="210" as="sourcePoint" />
            <mxPoint x="460" y="160" as="targetPoint" />
          </mxGeometry>
        </mxCell>
        <mxCell id="3UmKbR2uWDy8kfdV2p3z-17" value="" style="endArrow=none;dashed=1;html=1;dashPattern=1 3;strokeWidth=2;rounded=0;exitX=1;exitY=0.5;exitDx=0;exitDy=0;" edge="1" parent="1" source="3UmKbR2uWDy8kfdV2p3z-3">
          <mxGeometry width="50" height="50" relative="1" as="geometry">
            <mxPoint x="404" y="230" as="sourcePoint" />
            <mxPoint x="460" y="208" as="targetPoint" />
          </mxGeometry>
        </mxCell>
        <mxCell id="3UmKbR2uWDy8kfdV2p3z-18" value="" style="endArrow=none;dashed=1;html=1;dashPattern=1 3;strokeWidth=2;rounded=0;exitX=0.948;exitY=0.681;exitDx=0;exitDy=0;entryX=0;entryY=0.5;entryDx=0;entryDy=0;exitPerimeter=0;" edge="1" parent="1" source="3UmKbR2uWDy8kfdV2p3z-3" target="3UmKbR2uWDy8kfdV2p3z-14">
          <mxGeometry width="50" height="50" relative="1" as="geometry">
            <mxPoint x="405" y="222" as="sourcePoint" />
            <mxPoint x="455" y="220" as="targetPoint" />
          </mxGeometry>
        </mxCell>
        <mxCell id="3UmKbR2uWDy8kfdV2p3z-19" value="&amp;lt;Include&amp;gt;" style="edgeLabel;html=1;align=center;verticalAlign=middle;resizable=0;points=[];" connectable="0" vertex="1" parent="3UmKbR2uWDy8kfdV2p3z-18">
          <mxGeometry x="0.071" y="-1" relative="1" as="geometry">
            <mxPoint as="offset" />
          </mxGeometry>
        </mxCell>
        <mxCell id="3UmKbR2uWDy8kfdV2p3z-20" value="" style="endArrow=none;dashed=1;html=1;dashPattern=1 3;strokeWidth=2;rounded=0;entryX=0;entryY=0.5;entryDx=0;entryDy=0;" edge="1" parent="1" source="3UmKbR2uWDy8kfdV2p3z-3" target="3UmKbR2uWDy8kfdV2p3z-13">
          <mxGeometry width="50" height="50" relative="1" as="geometry">
            <mxPoint x="410" y="202" as="sourcePoint" />
            <mxPoint x="460" y="200" as="targetPoint" />
          </mxGeometry>
        </mxCell>
        <mxCell id="3UmKbR2uWDy8kfdV2p3z-21" value="" style="endArrow=none;dashed=1;html=1;dashPattern=1 3;strokeWidth=2;rounded=0;exitX=0.977;exitY=0.595;exitDx=0;exitDy=0;exitPerimeter=0;entryX=0;entryY=0.5;entryDx=0;entryDy=0;" edge="1" parent="1" source="3UmKbR2uWDy8kfdV2p3z-3" target="3UmKbR2uWDy8kfdV2p3z-15">
          <mxGeometry width="50" height="50" relative="1" as="geometry">
            <mxPoint x="440" y="240" as="sourcePoint" />
            <mxPoint x="490" y="238" as="targetPoint" />
          </mxGeometry>
        </mxCell>
        <mxCell id="3UmKbR2uWDy8kfdV2p3z-22" value="" style="endArrow=none;html=1;rounded=0;entryX=0.062;entryY=0.71;entryDx=0;entryDy=0;entryPerimeter=0;" edge="1" parent="1" source="3UmKbR2uWDy8kfdV2p3z-1" target="3UmKbR2uWDy8kfdV2p3z-3">
          <mxGeometry width="50" height="50" relative="1" as="geometry">
            <mxPoint x="440" y="400" as="sourcePoint" />
            <mxPoint x="490" y="350" as="targetPoint" />
            <Array as="points">
              <mxPoint x="180" y="250" />
            </Array>
          </mxGeometry>
        </mxCell>
        <mxCell id="3UmKbR2uWDy8kfdV2p3z-23" value="" style="endArrow=none;html=1;rounded=0;entryX=0;entryY=0.5;entryDx=0;entryDy=0;" edge="1" parent="1" source="3UmKbR2uWDy8kfdV2p3z-1" target="3UmKbR2uWDy8kfdV2p3z-5">
          <mxGeometry width="50" height="50" relative="1" as="geometry">
            <mxPoint x="120" y="300" as="sourcePoint" />
            <mxPoint x="170" y="250" as="targetPoint" />
          </mxGeometry>
        </mxCell>
        <mxCell id="3UmKbR2uWDy8kfdV2p3z-24" value="" style="endArrow=none;html=1;rounded=0;" edge="1" parent="1" source="3UmKbR2uWDy8kfdV2p3z-1" target="3UmKbR2uWDy8kfdV2p3z-4">
          <mxGeometry width="50" height="50" relative="1" as="geometry">
            <mxPoint x="100" y="282" as="sourcePoint" />
            <mxPoint x="270" y="300" as="targetPoint" />
          </mxGeometry>
        </mxCell>
        <mxCell id="3UmKbR2uWDy8kfdV2p3z-25" value="" style="endArrow=none;html=1;rounded=0;entryX=0;entryY=0.333;entryDx=0;entryDy=0;entryPerimeter=0;" edge="1" parent="1" source="3UmKbR2uWDy8kfdV2p3z-1" target="3UmKbR2uWDy8kfdV2p3z-6">
          <mxGeometry width="50" height="50" relative="1" as="geometry">
            <mxPoint x="120" y="292" as="sourcePoint" />
            <mxPoint x="290" y="310" as="targetPoint" />
          </mxGeometry>
        </mxCell>
        <mxCell id="3UmKbR2uWDy8kfdV2p3z-26" value="" style="endArrow=none;html=1;rounded=0;entryX=0.034;entryY=0.329;entryDx=0;entryDy=0;entryPerimeter=0;" edge="1" parent="1" source="3UmKbR2uWDy8kfdV2p3z-1" target="3UmKbR2uWDy8kfdV2p3z-10">
          <mxGeometry width="50" height="50" relative="1" as="geometry">
            <mxPoint x="130" y="302" as="sourcePoint" />
            <mxPoint x="300" y="320" as="targetPoint" />
          </mxGeometry>
        </mxCell>
      </root>
    </mxGraphModel>
  </diagram>
</mxfile>
